<mxfile host="app.diagrams.net" modified="2022-03-02T01:36:36.275Z" agent="5.0 (Macintosh; Intel Mac OS X 10_15_7) AppleWebKit/537.36 (KHTML, like Gecko) Chrome/97.0.4692.99 Safari/537.36" etag="taKa3X1kaN0VuVsb2XYx" version="15.8.9" type="github">
  <diagram id="LFf9DF6aBxdRIuAR3D89" name="第 1 页">
    <mxGraphModel dx="1426" dy="773" grid="1" gridSize="10" guides="1" tooltips="1" connect="1" arrows="1" fold="1" page="1" pageScale="1" pageWidth="1390" pageHeight="980" math="0" shadow="0">
      <root>
        <mxCell id="0" />
        <mxCell id="1" parent="0" />
        <mxCell id="eFBRuj3R06vNaD42EuPC-1" value="Client" style="shape=umlActor;verticalLabelPosition=bottom;verticalAlign=top;html=1;outlineConnect=0;" vertex="1" parent="1">
          <mxGeometry x="100" y="310" width="30" height="60" as="geometry" />
        </mxCell>
        <mxCell id="eFBRuj3R06vNaD42EuPC-2" value="Leader" style="rounded=1;whiteSpace=wrap;html=1;gradientColor=#ffffff;" vertex="1" parent="1">
          <mxGeometry x="239" y="317" width="120" height="60" as="geometry" />
        </mxCell>
        <mxCell id="eFBRuj3R06vNaD42EuPC-3" value="" style="endArrow=classic;html=1;rounded=0;entryX=-0.025;entryY=0.4;entryDx=0;entryDy=0;entryPerimeter=0;" edge="1" parent="1" source="eFBRuj3R06vNaD42EuPC-1" target="eFBRuj3R06vNaD42EuPC-2">
          <mxGeometry width="50" height="50" relative="1" as="geometry">
            <mxPoint x="140" y="380" as="sourcePoint" />
            <mxPoint x="190" y="330" as="targetPoint" />
          </mxGeometry>
        </mxCell>
        <mxCell id="eFBRuj3R06vNaD42EuPC-4" value="写入" style="edgeLabel;html=1;align=center;verticalAlign=middle;resizable=0;points=[];" vertex="1" connectable="0" parent="eFBRuj3R06vNaD42EuPC-3">
          <mxGeometry x="-0.0752" y="-1" relative="1" as="geometry">
            <mxPoint as="offset" />
          </mxGeometry>
        </mxCell>
        <mxCell id="eFBRuj3R06vNaD42EuPC-5" value="" style="rounded=1;whiteSpace=wrap;html=1;" vertex="1" parent="1">
          <mxGeometry x="580" y="230" width="120" height="60" as="geometry" />
        </mxCell>
      </root>
    </mxGraphModel>
  </diagram>
</mxfile>
